<?xml version="1.0" standalone="no"?>
<!DOCTYPE svg PUBLIC "-//W3C//DTD SVG 1.1//EN" "http://www.w3.org/Graphics/SVG/1.1/DTD/svg11.dtd" >
<svg xmlns="http://www.w3.org/2000/svg">
<metadata>Generated by IcoMoon</metadata>
<defs>
<font id="dm-social-icons" horiz-adv-x="1024">
<font-face units-per-em="1024" ascent="870.850439882698" descent="-153.14956011730206" />
<missing-glyph horiz-adv-x="1024" />
<glyph unicode="&#x20;" horiz-adv-x="0" d="" />
<glyph unicode="&#xe800;" glyph-name="tripadvisor" d="M982.976 451.069c12.3 51.25 50.225 103.525 50.225 103.525h-171.175c-96.35 61.5-213.2 94.3-342.35 94.3-134.275 0-255.225-32.8-350.55-95.325h-160.925s37.925-51.25 50.225-102.5c-31.775-43.050-50.225-94.3-50.225-151.7 0-141.45 114.8-256.25 256.25-256.25 80.975 0 152.725 36.9 199.875 95.325l55.35-80.975 54.325 82c24.6-30.75 56.375-56.375 94.3-73.8 62.525-28.7 132.225-31.775 196.8-8.2 132.225 49.2 199.875 197.825 151.7 330.050-9.225 23.575-20.5 45.1-34.85 63.55h1.025zM847.676 106.668c-51.25-19.475-107.625-17.425-156.825 6.15-35.875 15.375-64.575 41-85.075 72.775-8.2 13.325-16.4 26.65-21.525 42.025-6.15 16.4-9.225 33.825-11.275 52.275-3.075 34.85 2.050 70.725 17.425 104.55 23.575 49.2 64.575 87.125 115.825 106.6 105.575 38.95 223.45-15.375 263.425-121.975 38.95-105.575-15.375-223.45-121.975-262.4v0zM434.6 184.568c-36.9-54.325-99.425-90.2-170.15-90.2-112.75 0-205 92.25-205 205s92.25 205 205 205 205-92.25 205-205c0-7.175-1.025-13.325-2.050-20.5-3.075-34.85-14.35-67.65-32.8-95.325v1.025zM134.275 301.419c0-69.7 57.4-126.075 127.1-126.075s127.1 56.375 127.1 126.075c0 70.725-57.4 127.1-127.1 127.1s-127.1-56.375-127.1-127.1v0zM648.826 301.419c0-69.7 57.4-126.075 127.1-126.075s127.1 56.375 127.1 126.075c0 70.725-57.4 127.1-127.1 127.1s-127.1-56.375-127.1-127.1v0zM178.35 301.419c0 46.125 36.9 83.025 83.025 83.025 45.1 0 83.025-36.9 83.025-83.025 0-45.1-36.9-83.025-83.025-83.025s-84.050 37.925-84.050 83.025h1.025zM691.876 301.419c0 46.125 37.925 83.025 84.050 83.025 45.1 0 82-36.9 82-83.025 0-45.1-36.9-83.025-83.025-83.025s-83.025 37.925-83.025 83.025v0zM519.675 604.819c92.25 0 175.275-17.425 248.050-50.225-27.675-1.025-54.325-5.125-80.975-15.375-64.575-23.575-115.825-70.725-144.525-133.25-13.325-28.7-20.5-58.425-22.55-88.15-10.25 131.2-117.875 235.75-251.125 237.8 72.775 31.775 156.825 49.2 249.075 49.2h2.050z" />
<glyph unicode="&#xe813;" glyph-name="tiktok" d="M835.376 572.019c-88.15 19.475-152.725 92.25-160.925 181.425v19.475h-147.6v-584.251c0-68.675-55.35-123-124.025-123-37.925 0-74.825 18.45-97.375 49.2-42.025 54.325-30.75 131.2 23.575 173.225 31.775 23.575 73.8 30.75 111.725 18.45v149.65c-147.6 20.5-283.925-83.025-304.425-230.625-11.275-83.025 16.4-166.050 73.8-225.5 104.55-106.6 275.725-108.65 382.325-4.1 52.275 50.225 82 119.925 82 192.7v298.275c59.45-42.025 130.175-65.6 203.975-64.575v145.55c-14.35 0-28.7 2.050-43.050 5.125v-1.025z" />
<glyph unicode="&#xe901;" glyph-name="snapchat" d="M521.725 824.169c42.025 0 185.525-11.275 253.175-162.975 22.55-51.25 17.425-137.35 12.3-207.050v-3.075c0-7.175-1.025-14.35-1.025-21.525 3.075-2.050 8.2-4.1 17.425-4.1 12.3 1.025 27.675 5.125 44.075 13.325 6.15 4.1 14.35 4.1 19.475 4.1 7.175 0 15.375-1.025 21.525-4.1 19.475-6.15 31.775-19.475 31.775-34.85 0-19.475-17.425-35.875-52.275-50.225-4.1-1.025-9.225-3.075-14.35-5.125-19.475-6.15-49.2-15.375-57.4-34.85-3.075-9.225-2.050-22.55 5.125-36.9l1.025-1.025c2.050-5.125 64.575-147.6 205-171.175 10.25-2.050 18.45-11.275 17.425-21.525 0-3.075-1.025-6.15-2.050-9.225-10.25-24.6-54.325-43.050-134.275-54.325-2.050-4.1-5.125-16.4-7.175-24.6-1.025-8.2-3.075-15.375-5.125-23.575-4.1-12.3-12.3-17.425-23.575-17.425h-2.050c-5.125 0-13.325 1.025-22.55 3.075-15.375 3.075-32.8 6.15-54.325 6.15-13.325 0-25.625-1.025-38.95-4.1-25.625-4.1-48.175-19.475-73.8-36.9-36.9-25.625-77.9-55.35-140.425-55.35-3.075 0-5.125 1.025-8.2 1.025h-6.15c-62.525 0-103.525 28.7-140.425 54.325-25.625 18.45-47.15 33.825-72.775 37.925-13.325 2.050-26.65 3.075-38.95 3.075-23.575 0-41-4.1-54.325-6.15-9.225-2.050-17.425-3.075-23.575-3.075-15.375 0-22.55 9.225-24.6 17.425-3.075 8.2-4.1 17.425-6.15 24.6-2.050 8.2-4.1 21.525-7.175 24.6-82 9.225-126.075 27.675-136.325 52.275-1.025 3.075-2.050 6.15-2.050 9.225-1.025 10.25 7.175 20.5 18.45 22.55 139.4 22.55 201.925 165.025 203.975 171.175l1.025 1.025c7.175 15.375 9.225 27.675 5.125 36.9-8.2 19.475-37.925 28.7-57.4 34.85-5.125 1.025-10.25 3.075-14.35 5.125-47.15 18.45-53.3 39.975-51.25 54.325 4.1 20.5 28.7 33.825 50.225 33.825 6.15 0 11.275-1.025 16.4-3.075 17.425-8.2 33.825-12.3 47.15-12.3 9.225 0 16.4 2.050 19.475 4.1l-2.050 24.6c-4.1 68.675-9.225 155.8 13.325 206.025 65.6 150.675 209.1 161.95 251.125 161.95l17.425 1.025h3.075z" />
<glyph unicode="&#xe902;" glyph-name="waze" horiz-adv-x="1153" d="M1144.926 469.519c33.825-196.8-72.775-384.375-260.35-474.575 29.725-76.875-30.75-161.95-111.725-161.95-63.55 0-114.8 51.25-118.9 110.7-13.325 0-149.65 0-175.275 0 0-29.725-17.425-59.45-38.95-80.975-25.625-21.525-55.35-29.725-89.175-29.725-76.875 4.1-132.225 80.975-106.6 153.75-86.1 29.725-167.075 80.975-230.625 161.95-30.75 38.95 0 94.3 46.125 94.3 107.625 0 72.775 124.025 98.4 252.15 43.050 213.2 269.575 358.75 490.975 358.75 239.85 4.1 457.15-157.85 496.1-384.375zM849.726 42.093c98.4 43.050 188.6 128.125 222.425 234.725 94.3 281.875-149.65 521.725-423.325 521.725-191.675 0-392.575-128.125-430.5-311.6-21.525-111.725 12.3-299.3-158.875-299.3 60.475-76.875 137.35-119.925 218.325-145.55 55.35 51.25 149.65 34.85 183.475-33.825 33.825-4.1 183.475-4.1 205 0 17.425 29.725 47.15 55.35 80.975 59.45 38.95 9.225 72.775-4.1 102.5-25.625zM457.15 503.344c0 80.975 119.925 80.975 119.925 0s-119.925-80.975-119.925 0zM730.826 503.344c0 80.975 118.9 80.975 118.9 0s-118.9-80.975-118.9 0zM443.825 341.394c-8.2 37.925 51.25 51.25 60.475 12.3v0c8.2-46.125 67.65-102.5 149.65-97.375s136.325 51.25 148.625 97.375c9.225 38.95 68.675 25.625 60.475-12.3-13.325-51.25-72.775-141.45-214.225-145.55-97.375 0-187.575 64.575-205 145.55v0z" />
<glyph unicode="&#xe903;" glyph-name="google-my-business" horiz-adv-x="1139" d="M520.678 778.672c117.354 0 215.914-43.153 291.315-113.406l-124.877-124.875c-45.12 43.142-102.515 65.125-166.438 65.125-113.389-0.005-209.356-76.6-243.592-179.5l-3.063-9.875c-6.781-23.235-10.593-47.734-10.594-72.845 0-28.691 4.951-56.598 13.656-82.717l3.375-9.565c36.861-98.048 130.371-169.93 240.218-169.936 58.573 0 108.454 15.443 147.44 41.562h0.029l8.47 5.968c41.395 30.704 68.944 74.422 78.406 125.44h-234.314v168.406h410.032c5.146-28.496 7.936-58.192 7.936-89.062-0.003-132.586-47.52-244.208-129.843-320h-0.032c-72.032-66.483-170.586-105.469-288.125-105.469-170.186 0.003-317.424 97.587-389.061 239.875v0.061c-29.461 58.755-46.281 125.216-46.281 195.437 0.001 70.253 16.796 136.758 46.281 195.533l6.937 13.187c73.925 135.084 217.253 226.652 382.124 226.656z" />
<glyph unicode="&#xe907;" glyph-name="whatsapp" d="M379.25 557.669c10.25-24.6 37.925-86.1 37.925-92.25 3.075-7.175 6.15-14.35 0-20.5-4.1-7.175-7.175-14.35-14.35-20.5s-13.325-17.425-20.5-20.5c-6.15-7.175-13.325-14.35-6.15-27.675s33.825-54.325 71.75-85.075c47.15-45.1 88.15-55.35 102.5-61.5s20.5-7.175 26.65 3.075c7.175 7.175 30.75 37.925 41 48.175 7.175 13.325 17.425 10.25 27.675 6.15s74.825-33.825 85.075-41c14.35-6.15 20.5-10.25 24.6-13.325 3.075-7.175 3.075-30.75-7.175-58.425-10.25-30.75-61.5-57.4-85.075-57.4-24.6-4.1-45.1-10.25-153.75 30.75-130.175 51.25-212.175 180.4-215.25 190.65-7.175 7.175-51.25 68.675-51.25 130.175s33.825 92.25 44.075 105.575c10.25 14.35 23.575 17.425 33.825 17.425 7.175 0 17.425 0 24.6 0 13.325-10.25 23.575-10.25 33.825-33.825zM512.5-64.507c232.675 0 420.25 187.575 420.25 417.175 0 112.75-44.075 215.25-123 297.25-78.925 77.9-184.5 123-297.25 123-232.675 0-423.325-188.6-423.325-417.175 0-78.925 23.575-156.825 64.575-222.425l10.25-16.4-41-153.75 156.825 41 17.425-10.25c64.575-37.925 140.425-58.425 215.25-58.425v0zM871.251 711.419c95.325-96.35 146.575-222.425 146.575-355.675 0-276.75-228.575-502.25-508.4-502.25v0 0c-86.1 0-168.1 20.5-242.925 61.5l-269.575-68.675 71.75 260.35c-45.1 74.825-68.675 164-68.675 252.15 3.075 273.675 232.675 499.175 512.5 499.175 136.325 0 263.425-51.25 358.75-146.575z" />
<glyph unicode="&#xe908;" glyph-name="google-plus" d="M325.95 392.644v-112.75h185.525c-7.175-47.15-56.375-140.425-185.525-140.425-110.7 0-201.925 92.25-201.925 206.025s91.225 206.025 201.925 206.025c63.55 0 106.6-26.65 130.175-50.225l88.15 85.075c-56.375 53.3-130.175 85.075-218.325 85.075-180.4 0-325.95-145.55-325.95-325.95s145.55-325.95 325.95-325.95c188.6 0 313.65 132.225 313.65 318.775 0 21.525-3.075 37.925-5.125 54.325h-308.525zM1025.001 392.644h-93.275v92.25h-93.275v-92.25h-93.275v-93.275h93.275v-93.275h93.275v93.275h93.275z" />
<glyph unicode="&#xe9f0;" glyph-name="picassa" d="M704.176 465.419l-363.875 362.85c54.325 19.475 111.725 29.725 172.2 29.725 67.65 0 132.225-13.325 191.675-36.9v-355.675zM767.726 156.893v632.426c151.7-88.15 254.2-252.15 254.2-440.75 0-67.65-12.3-132.225-36.9-191.675h-217.3zM321.85 93.343h632.426c-88.15-152.725-253.175-255.225-441.775-255.225-67.65 0-132.225 13.325-190.65 36.9v218.325zM427.425 634.544l-410-408.975c-9.225 38.95-14.35 80.975-14.35 123 0 192.7 106.6 359.775 264.45 446.9l159.9-160.925zM257.275 358.819v-452.025c-94.3 54.325-169.125 138.375-212.175 238.825l212.175 213.2z" />
<glyph unicode="&#xea90;" glyph-name="facebook" d="M608.851 666.319h159.9v191.675h-159.9c-124.025 0-224.475-100.45-224.475-224.475v-95.325h-128.125v-192.7h128.125v-512.5h192.7v512.5h159.9l31.775 192.7h-191.675v95.325c0 17.425 14.35 32.8 31.775 32.8z" />
<glyph unicode="&#xea92;" glyph-name="instagram" d="M512.5 765.744c137.35 0 152.725-1.025 207.050-3.075 50.225-2.050 76.875-10.25 95.325-17.425 23.575-9.225 41-20.5 58.425-37.925 18.45-18.45 29.725-35.875 38.95-59.45 7.175-17.425 15.375-45.1 17.425-95.325 2.050-53.3 3.075-69.7 3.075-207.050s-1.025-152.725-3.075-207.050c-2.050-49.2-10.25-76.875-17.425-94.3-9.225-24.6-20.5-41-38.95-59.45-17.425-17.425-34.85-28.7-58.425-37.925-18.45-7.175-45.1-15.375-95.325-17.425-54.325-3.075-69.7-3.075-207.050-3.075s-152.725 0-207.050 3.075c-50.225 2.050-76.875 10.25-94.3 17.425-24.6 9.225-42.025 20.5-59.45 37.925-17.425 18.45-28.7 34.85-37.925 59.45-7.175 17.425-15.375 45.1-18.45 94.3-2.050 54.325-3.075 70.725-3.075 207.050s1.025 153.75 3.075 207.050c3.075 50.225 11.275 76.875 18.45 95.325 9.225 23.575 20.5 41 37.925 58.425 17.425 18.45 34.85 29.725 58.425 38.95 18.45 7.175 45.1 15.375 95.325 17.425 54.325 2.050 69.7 3.075 207.050 3.075zM512.5 857.994c-139.4 0-156.825-1.025-211.15-3.075s-92.25-11.275-124.025-23.575c-33.825-13.325-62.525-30.75-91.225-59.45s-46.125-57.4-59.45-90.2c-12.3-32.8-21.525-70.725-23.575-125.050s-3.075-71.75-3.075-211.15 1.025-156.825 3.075-211.15c2.050-54.325 11.275-92.25 23.575-124.025 13.325-33.825 30.75-62.525 59.45-91.225s57.4-46.125 91.225-59.45c31.775-12.3 69.7-21.525 124.025-23.575s71.75-3.075 211.15-3.075 156.825 1.025 211.15 3.075c54.325 2.050 92.25 11.275 124.025 23.575 33.825 13.325 62.525 30.75 91.225 59.45s46.125 57.4 58.425 91.225c13.325 31.775 21.525 69.7 24.6 124.025 2.050 54.325 2.050 71.75 2.050 211.15s0 156.825-2.050 211.15c-3.075 54.325-11.275 92.25-24.6 124.025-12.3 33.825-29.725 62.525-58.425 91.225s-57.4 46.125-90.2 59.45c-32.8 12.3-70.725 21.525-125.050 23.575s-71.75 3.075-211.15 3.075v0zM512.5 608.919c-145.55 0-263.425-117.875-263.425-263.425s117.875-263.425 263.425-263.425 263.425 117.875 263.425 263.425c0 145.55-117.875 263.425-263.425 263.425zM512.5 174.318c-94.3 0-171.175 76.875-171.175 171.175s76.875 171.175 171.175 171.175c94.3 0 171.175-76.875 171.175-171.175s-76.875-171.175-171.175-171.175zM847.676 619.169c0-33.825-27.675-61.5-61.5-61.5s-61.5 27.675-61.5 61.5c0 33.825 27.675 61.5 61.5 61.5s61.5-27.675 61.5-61.5z" />
<glyph unicode="&#xea96;" glyph-name="twitter" d="M596.592 424.2l373.183 433.795h-88.432l-324.034-376.658-258.806 376.658h-298.502l391.365-569.574-391.365-454.901h88.437l342.189 397.763 273.318-397.763h298.502l-405.854 590.68zM475.464 283.402l-355.162 508.017h135.835l625.247-894.353h-135.835l-270.085 386.336z" />
<glyph unicode="&#xea9d;" glyph-name="youtube" d="M1014.751 550.494c0 0-10.25 70.725-41 101.475-38.95 41-82 41-102.5 44.075-143.5 10.25-358.75 10.25-358.75 10.25v0c0 0-215.25 0-358.75-10.25-19.475-3.075-63.55-3.075-102.5-44.075-30.75-30.75-41-101.475-41-101.475s-10.25-83.025-10.25-166.050v-77.9c0-83.025 10.25-166.050 10.25-166.050s10.25-70.725 41-101.475c38.95-41 90.2-38.95 112.75-44.075 82-7.175 348.5-10.25 348.5-10.25s215.25 1.025 358.75 11.275c20.5 2.050 63.55 2.050 102.5 43.050 31.775 30.75 41 101.475 41 101.475s10.25 83.025 10.25 166.050v77.9c0 83.025-10.25 166.050-10.25 166.050zM406.925 212.244v288.025l276.75-144.525-276.75-143.5z" />
<glyph unicode="&#xeaa0;" glyph-name="vimeo" d="M1025.001 583.294c-5.125-99.425-74.825-235.75-209.1-408.975-139.4-181.425-257.275-271.625-353.625-271.625-60.475 0-110.7 54.325-151.7 165.025-27.675 101.475-55.35 201.925-83.025 303.4-30.75 109.675-63.55 165.025-98.4 165.025-8.2 0-34.85-16.4-80.975-48.175l-48.175 62.525c51.25 44.075 100.45 88.15 149.65 133.25 67.65 58.425 117.875 88.15 151.7 92.25 79.95 7.175 129.15-47.15 147.6-164 19.475-126.075 33.825-203.975 42.025-234.725 22.55-104.55 48.175-156.825 75.85-156.825 20.5 0 53.3 33.825 96.35 101.475s65.6 119.925 68.675 154.775c6.15 58.425-16.4 88.15-68.675 88.15-24.6 0-50.225-6.15-75.85-16.4 50.225 164 146.575 244.975 289.050 239.85 104.55-3.075 154.775-70.725 148.625-205z" />
<glyph unicode="&#xeac6;" glyph-name="reddit" d="M256.25 217.369c0 35.875 28.7 64.575 64.575 64.575s63.55-28.7 63.55-64.575c0-34.85-28.7-63.55-63.55-63.55s-64.575 28.7-64.575 63.55zM640.626 217.369c0 35.875 28.7 64.575 64.575 64.575s63.55-28.7 63.55-64.575c0-34.85-28.7-63.55-63.55-63.55s-64.575 28.7-64.575 63.55zM643.701 80.018c16.4 13.325 41 10.25 53.3-6.15s10.25-39.975-6.15-53.3c-46.125-35.875-115.825-59.45-178.35-59.45s-132.225 23.575-178.35 59.45c-16.4 13.325-19.475 36.9-6.15 53.3s36.9 19.475 53.3 6.15c26.65-20.5 78.925-43.050 131.2-43.050s104.55 22.55 131.2 43.050zM1025.001 345.494c0 70.725-57.4 128.125-128.125 128.125-48.175 0-90.2-26.65-111.725-65.6-65.6 35.875-146.575 59.45-233.7 64.575l76.875 171.175 145.55-42.025c13.325-36.9 49.2-63.55 91.225-63.55 53.3 0 96.35 43.050 96.35 95.325s-43.050 96.35-96.35 96.35c-36.9 0-68.675-20.5-85.075-50.225l-162.975 47.15c-18.45 5.125-37.925-4.1-45.1-21.525l-103.525-232.675c-86.1-6.15-164-29.725-228.575-64.575-21.525 38.95-63.55 65.6-111.725 65.6-70.725 0-128.125-57.4-128.125-128.125 0-52.275 31.775-97.375 76.875-116.85-8.2-24.6-12.3-49.2-12.3-74.825 0-177.325 199.875-320.825 447.925-320.825s448.95 143.5 448.95 320.825c0 25.625-5.125 50.225-13.325 74.825 45.1 19.475 76.875 64.575 76.875 116.85zM865.101 669.394c19.475 0 35.875-15.375 35.875-35.875s-16.4-35.875-35.875-35.875-35.875 16.4-35.875 35.875 15.375 35.875 35.875 35.875zM64.575 345.494c0 35.875 28.7 64.575 63.55 64.575 25.625 0 48.175-15.375 58.425-36.9-33.825-25.625-61.5-55.35-82-87.125-23.575 9.225-39.975 32.8-39.975 59.45zM512.5-91.157c-206.025 0-372.075 109.675-372.075 244.975s166.050 243.95 372.075 243.95c206.025 0 372.075-109.675 372.075-243.95s-166.050-244.975-372.075-244.975zM920.451 286.044c-20.5 31.775-48.175 61.5-80.975 87.125 10.25 21.525 31.775 36.9 57.4 36.9 35.875 0 64.575-28.7 64.575-64.575 0-26.65-17.425-50.225-41-59.45z" />
<glyph unicode="&#xeace;" glyph-name="email" d="M952.226-1.982v438.7q-18.45-20.5-39.975-37.925-152.725-116.85-243.95-192.7-28.7-24.6-47.15-38.95t-49.2-27.675-58.425-13.325h-2.050q-26.65 0-58.425 13.325t-49.2 27.675-47.15 38.95q-90.2 75.85-243.95 192.7-21.525 17.425-39.975 37.925v-438.7q0-7.175 6.15-13.325t12.3-5.125h842.551q7.175 0 12.3 5.125t6.15 13.325zM952.226 598.669v14.35t-1.025 7.175-1.025 7.175-3.075 5.125-5.125 4.1-8.2 2.050h-842.551q-7.175 0-12.3-6.15t-6.15-12.3q0-96.35 84.050-162.975 110.7-86.1 229.6-180.4 4.1-3.075 20.5-17.425t25.625-21.525 25.625-17.425 28.7-16.4 24.6-5.125h2.050q11.275 0 24.6 5.125t28.7 16.4 25.625 17.425 25.625 21.525 20.5 17.425q118.9 94.3 229.6 180.4 30.75 24.6 57.4 66.625t26.65 74.825zM1025.001 620.194v-622.176q0-37.925-26.65-64.575t-64.575-27.675h-842.551q-37.925 0-64.575 27.675t-26.65 64.575v622.176q0 37.925 26.65 64.575t64.575 26.65h842.551q37.925 0 64.575-26.65t26.65-64.575z" />
<glyph unicode="&#xead7;" glyph-name="yelp" d="M609.876 204.044c-17.425-17.425-3.075-49.2-3.075-49.2l130.175-217.3c0 0 21.525-28.7 39.975-28.7s36.9 15.375 36.9 15.375l103.525 146.575c0 0 10.25 18.45 10.25 34.85 0 23.575-34.85 29.725-34.85 29.725l-243.95 77.9c0 0-23.575 7.175-38.95-9.225zM597.576 313.719c12.3-21.525 46.125-15.375 46.125-15.375l243.95 71.75c0 0 32.8 13.325 37.925 30.75 4.1 18.45-6.15 39.975-6.15 39.975l-115.825 136.325c0 0-10.25 17.425-30.75 19.475-23.575 2.050-37.925-25.625-37.925-25.625l-137.35-216.275c0 0-12.3-21.525 0-41zM482.775 397.769c27.675 7.175 32.8 49.2 32.8 49.2l-2.050 345.425c0 0-4.1 43.050-23.575 54.325-29.725 18.45-38.95 9.225-47.15 8.2l-201.925-75.85c0 0-20.5-6.15-30.75-22.55-14.35-23.575 15.375-57.4 15.375-57.4l210.125-285.975c0 0 20.5-21.525 47.15-15.375zM432.55 257.344c1.025 26.65-31.775 43.050-31.775 43.050l-217.3 109.675c0 0-31.775 13.325-48.175 4.1-11.275-7.175-22.55-19.475-23.575-30.75l-14.35-174.25c0 0-2.050-30.75 6.15-44.075 11.275-19.475 47.15-6.15 47.15-6.15l254.2 56.375c9.225 6.15 26.65 7.175 27.675 42.025zM495.075 164.068c-21.525 11.275-47.15-12.3-47.15-12.3l-170.15-186.55c0 0-20.5-28.7-15.375-46.125 5.125-16.4 13.325-24.6 25.625-30.75l170.15-53.3c0 0 20.5-4.1 35.875 0 22.55 6.15 18.45 41 18.45 41l4.1 253.175c0 0-1.025 24.6-21.525 34.85z" />
<glyph unicode="&#xf09e;" glyph-name="rss" horiz-adv-x="805" d="M219.35 89.243q0-46.125-31.775-77.9t-77.9-31.775-77.9 31.775-31.775 77.9 31.775 77.9 77.9 31.775 77.9-31.775 31.775-77.9zM512.5 18.518q1.025-15.375-9.225-26.65-10.25-12.3-27.675-12.3h-76.875q-14.35 0-24.6 9.225t-11.275 23.575q-12.3 131.2-105.575 224.475t-224.475 105.575q-14.35 1.025-23.575 11.275t-9.225 24.6v76.875q0 16.4 12.3 26.65 9.225 10.25 24.6 10.25h3.075q91.225-7.175 174.25-46.125t148.625-103.525q64.575-64.575 103.525-148.625t46.125-175.275zM805.651 17.493q1.025-15.375-10.25-26.65-10.25-11.275-26.65-11.275h-82q-14.35 0-25.625 10.25t-10.25 23.575q-7.175 123-58.425 233.7t-132.225 192.7-192.7 132.225-232.675 58.425q-14.35 1.025-24.6 11.275t-10.25 24.6v82q0 16.4 11.275 26.65 10.25 10.25 25.625 10.25h1.025q150.675-8.2 287-68.675t243.95-168.1q106.6-106.6 168.1-243.95t68.675-287z" />
<glyph unicode="&#xf0d2;" glyph-name="pinterest" horiz-adv-x="879" d="M878.426 345.494q0-119.925-58.425-220.375t-159.9-159.9-220.375-59.45q-63.55 0-125.050 18.45 33.825 53.3 44.075 94.3 6.15 19.475 31.775 120.95 11.275-22.55 41-38.95t65.6-16.4q69.7 0 124.025 38.95t84.050 107.625 29.725 154.775q0 65.6-34.85 123t-98.4 92.25-145.55 36.9q-60.475 0-112.75-17.425t-88.15-44.075-62.525-62.525-37.925-73.8-12.3-76.875q0-59.45 22.55-104.55t67.65-63.55q16.4-7.175 21.525 11.275 1.025 4.1 4.1 17.425t5.125 17.425q3.075 13.325-6.15 24.6-29.725 34.85-29.725 86.1 0 86.1 59.45 148.625t156.825 62.525q86.1 0 135.3-47.15t48.175-121.975q0-97.375-39.975-165.025t-100.45-68.675q-34.85 0-55.35 25.625t-13.325 59.45q4.1 19.475 15.375 53.3t17.425 58.425 6.15 44.075q0 28.7-15.375 47.15t-44.075 18.45q-35.875 0-60.475-31.775t-24.6-82q0-41 14.35-69.7l-56.375-238.825q-9.225-39.975-7.175-101.475-117.875 52.275-190.65 160.925t-72.775 241.9q0 119.925 59.45 220.375t158.875 159.9 221.4 59.45 220.375-59.45 159.9-159.9 58.425-220.375z" />
<glyph unicode="&#xf0e1;" glyph-name="linkedin" horiz-adv-x="879" d="M199.875 500.269v-566.826h-188.6v566.826h188.6zM212.175 675.544q0-42.025-29.725-69.7t-76.875-27.675h-1.025q-47.15 0-75.85 27.675t-28.7 69.7 29.725 69.7 76.875 27.675 75.85-27.675 29.725-69.7zM878.426 258.369v-324.925h-187.575v303.4q0 60.475-23.575 94.3t-72.775 33.825q-35.875 0-59.45-19.475t-36.9-49.2q-6.15-17.425-6.15-46.125v-316.725h-188.6q1.025 228.575 1.025 370.025t0 169.125l-1.025 27.675h188.6v-82h-1.025q11.275 18.45 23.575 31.775t31.775 29.725 50.225 24.6 65.6 9.225q97.375 0 156.825-64.575t59.45-190.65z" />
<glyph unicode="&#xf180;" glyph-name="foursquare" horiz-adv-x="732" d="M571.951 609.944l21.525 110.7q3.075 13.325-5.125 22.55t-20.5 10.25h-406.925q-13.325 0-22.55-10.25t-8.2-20.5v-630.376q0-4.1 3.075 0l166.050 200.9q13.325 15.375 22.55 19.475t26.65 4.1h137.35q12.3 0 20.5 8.2t11.275 17.425q13.325 73.8 20.5 108.65 2.050 12.3-6.15 23.575t-21.525 10.25h-168.1q-16.4 0-26.65 11.275t-11.275 27.675v23.575q0 16.4 11.275 27.675t26.65 10.25h197.825q10.25 0 20.5 7.175t11.275 17.425zM702.126 737.044q-9.225-42.025-30.75-152.725t-39.975-199.875-19.475-99.425q-4.1-12.3-5.125-18.45t-8.2-18.45-14.35-19.475-21.525-12.3-33.825-5.125h-154.775q-7.175 0-12.3-6.15-5.125-5.125-243.95-281.875-12.3-14.35-33.825-16.4t-27.675 3.075q-30.75 12.3-30.75 55.35v806.676q0 31.775 21.525 59.45t68.675 26.65h507.375q54.325 0 72.775-30.75t6.15-90.2zM702.126 737.044l-90.2-452.025q2.050 9.225 19.475 99.425t39.975 199.875 30.75 152.725z" />
</font>
</defs>
</svg>
