<?xml version="1.0" encoding="UTF-8"?>
<svg id="Layer_2" data-name="Layer 2" xmlns="http://www.w3.org/2000/svg" viewBox="0 0 818.38 342.39">
  <defs>
    <style>
      .cls-1 {
        fill: #63b664;
      }

      .cls-1, .cls-2, .cls-3 {
        stroke-width: 0px;
      }

      .cls-2 {
        fill: #53378c;
      }

      .cls-3 {
        fill: #357b9c;
      }
    </style>
  </defs>
  <g id="Layer_1-2" data-name="Layer 1">
    <g>
      <path class="cls-2" d="m39.15,292.64c-1.99-1.02-4.17-1.91-6.53-2.66-2.37-.75-4.68-1.13-6.94-1.13-3.12,0-5.61.73-7.46,2.18s-2.78,3.39-2.78,5.81c0,1.83.61,3.38,1.82,4.64,1.21,1.26,2.77,2.35,4.68,3.27,1.9.91,3.94,1.77,6.09,2.58,1.77.64,3.55,1.41,5.32,2.3s3.37,1.98,4.8,3.27c1.42,1.29,2.55,2.88,3.39,4.76s1.25,4.19,1.25,6.94c0,3.12-.77,5.94-2.3,8.47-1.53,2.53-3.72,4.52-6.57,5.97s-6.27,2.18-10.24,2.18c-2.53,0-4.96-.28-7.3-.85-2.34-.57-4.5-1.33-6.49-2.3s-3.76-1.96-5.32-2.98l3.47-6.13c1.29.92,2.77,1.79,4.44,2.62,1.66.83,3.41,1.49,5.24,1.98,1.83.48,3.6.73,5.32.73,1.88,0,3.71-.32,5.48-.97,1.78-.65,3.25-1.67,4.44-3.07,1.18-1.4,1.78-3.25,1.78-5.56,0-1.93-.53-3.57-1.58-4.92s-2.42-2.49-4.11-3.43-3.54-1.79-5.53-2.54c-1.88-.64-3.75-1.4-5.6-2.26-1.86-.86-3.58-1.9-5.16-3.1-1.59-1.21-2.87-2.7-3.87-4.48-1-1.77-1.49-3.92-1.49-6.45,0-3.07.74-5.74,2.22-8.03,1.48-2.28,3.51-4.09,6.09-5.4s5.54-2.03,8.87-2.14c3.77,0,7.08.46,9.96,1.37,2.87.92,5.41,2.02,7.62,3.31l-2.98,6.05Z"/>
      <path class="cls-2" d="m75.48,319.89c0,2.64.63,4.99,1.9,7.06,1.26,2.07,2.95,3.7,5.08,4.88,2.12,1.18,4.47,1.77,7.05,1.77,2.74,0,5.19-.59,7.34-1.77,2.15-1.18,3.83-2.81,5.04-4.88,1.21-2.07,1.82-4.42,1.82-7.06v-37.66h7.74v37.9c0,4.25-.97,7.96-2.9,11.13-1.93,3.17-4.57,5.62-7.91,7.34-3.33,1.72-7.04,2.58-11.13,2.58s-7.71-.86-11.05-2.58c-3.34-1.72-5.97-4.16-7.91-7.34-1.93-3.17-2.9-6.88-2.9-11.13v-37.9h7.83v37.66Z"/>
      <path class="cls-2" d="m169.13,292.64c-1.99-1.02-4.17-1.91-6.53-2.66-2.37-.75-4.68-1.13-6.94-1.13-3.12,0-5.61.73-7.46,2.18s-2.78,3.39-2.78,5.81c0,1.83.61,3.38,1.82,4.64,1.21,1.26,2.77,2.35,4.68,3.27,1.9.91,3.94,1.77,6.09,2.58,1.77.64,3.55,1.41,5.32,2.3s3.37,1.98,4.8,3.27c1.42,1.29,2.55,2.88,3.39,4.76s1.25,4.19,1.25,6.94c0,3.12-.77,5.94-2.3,8.47-1.53,2.53-3.72,4.52-6.57,5.97s-6.27,2.18-10.24,2.18c-2.53,0-4.96-.28-7.3-.85-2.34-.57-4.5-1.33-6.49-2.3s-3.76-1.96-5.32-2.98l3.47-6.13c1.29.92,2.77,1.79,4.44,2.62,1.66.83,3.41,1.49,5.24,1.98,1.83.48,3.6.73,5.32.73,1.88,0,3.71-.32,5.48-.97,1.78-.65,3.25-1.67,4.44-3.07,1.18-1.4,1.78-3.25,1.78-5.56,0-1.93-.53-3.57-1.58-4.92s-2.42-2.49-4.11-3.43-3.54-1.79-5.53-2.54c-1.88-.64-3.75-1.4-5.6-2.26-1.86-.86-3.58-1.9-5.16-3.1-1.59-1.21-2.87-2.7-3.87-4.48-1-1.77-1.49-3.92-1.49-6.45,0-3.07.74-5.74,2.22-8.03,1.48-2.28,3.51-4.09,6.09-5.4s5.54-2.03,8.87-2.14c3.77,0,7.08.46,9.96,1.37,2.87.92,5.41,2.02,7.62,3.31l-2.98,6.05Z"/>
      <path class="cls-2" d="m194.6,282.23h38.79v7.5h-15.65v50.81h-7.82v-50.81h-15.32v-7.5Z"/>
      <path class="cls-2" d="m245.59,340.54l25.4-60.73h.48l25.49,60.73h-8.95l-19.03-48.47,5.57-3.63-21.21,52.1h-7.74Zm14.92-22.1h21.69l2.58,6.78h-26.54l2.26-6.78Z"/>
      <path class="cls-2" d="m320.14,282.23h7.82v58.31h-7.82v-58.31Z"/>
      <path class="cls-2" d="m408.86,342.39l-45.08-45.73,2.26.56.16,43.31h-7.82v-60.08h.4l44.52,45.89-1.77-.4-.16-43.71h7.82v60.16h-.32Z"/>
      <path class="cls-2" d="m432.23,340.54l25.4-60.73h.48l25.49,60.73h-8.95l-19.03-48.47,5.57-3.63-21.21,52.1h-7.74Zm14.92-22.1h21.69l2.58,6.78h-26.54l2.26-6.78Z"/>
      <path class="cls-2" d="m521.79,282.23c5.86,0,10.47,1.2,13.83,3.59,3.36,2.39,5.04,6.09,5.04,11.09,0,3.12-.7,5.81-2.1,8.07-1.4,2.26-3.35,4.03-5.85,5.32-2.5,1.29-5.44,2.04-8.83,2.26l-1.13-4.11c3.92.11,7.44.81,10.56,2.1,3.12,1.29,5.59,3.09,7.42,5.4,1.83,2.31,2.74,5.05,2.74,8.23,0,2.9-.52,5.39-1.57,7.46-1.05,2.07-2.5,3.76-4.36,5.08-1.86,1.32-3.92,2.29-6.21,2.9-2.29.62-4.69.93-7.22.93h-17.34v-58.31h15Zm1.61,25.49c3.22,0,5.56-.89,7.01-2.66,1.45-1.77,2.18-3.93,2.18-6.45,0-3.12-.95-5.38-2.83-6.77-1.88-1.4-4.41-2.1-7.58-2.1h-7.58v17.98h8.79Zm.32,25.57c2.21,0,4.19-.32,5.97-.97,1.77-.64,3.18-1.65,4.23-3.02,1.05-1.37,1.57-3.05,1.57-5.04,0-2.26-.6-4.03-1.81-5.32s-2.76-2.22-4.64-2.78c-1.89-.56-3.82-.85-5.81-.85h-8.63v17.99h9.11Z"/>
      <path class="cls-2" d="m570.75,282.23h7.82v58.31h-7.82v-58.31Z"/>
      <path class="cls-2" d="m608.98,282.23h7.82v50.81h29.6v7.5h-37.42v-58.31Z"/>
      <path class="cls-2" d="m671.85,282.23h7.82v58.31h-7.82v-58.31Z"/>
      <path class="cls-2" d="m704.47,282.23h38.79v7.5h-15.65v50.81h-7.82v-50.81h-15.32v-7.5Z"/>
      <path class="cls-2" d="m786.43,321.11l-21.61-38.87h9.59l17.34,32.18-2.42.16,17.18-32.34h9.51l-21.77,38.87v19.44h-7.83v-19.44Z"/>
    </g>
    <g>
      <g>
        <path class="cls-2" d="m249.73,234.21V7.99h57.88v226.21h-57.88Z"/>
        <path class="cls-2" d="m450.52,238.86c-23.73,0-44.24-5.21-61.54-15.64-17.3-10.42-30.61-24.5-39.92-42.25-9.32-17.74-13.97-37.37-13.97-58.88,0-23.29,4.88-43.85,14.64-61.71,9.76-17.85,23.4-31.82,40.92-41.92,17.52-10.09,37.48-15.14,59.88-15.14,24.17,0,45.02,5.21,62.54,15.64,17.52,10.43,30.88,24.4,40.09,41.92,9.2,17.52,13.8,37.15,13.8,58.88,0,23.29-4.82,43.91-14.47,61.87-9.65,17.96-23.23,31.99-40.75,42.08-17.52,10.09-37.92,15.14-61.21,15.14Zm0-48.57c10.64,0,20.23-2.55,28.77-7.65,8.54-5.1,15.36-12.92,20.46-23.45,5.1-10.53,7.65-23.67,7.65-39.42,0-13.08-2.22-24.73-6.66-34.93-4.44-10.2-10.87-18.3-19.29-24.28-8.43-5.99-18.52-8.98-30.27-8.98-10.2,0-19.63,2.94-28.28,8.81-8.65,5.88-15.58,13.97-20.79,24.28-5.21,10.31-7.82,22.68-7.82,37.09,0,13.09,2.22,24.84,6.65,35.26,4.44,10.43,10.92,18.58,19.46,24.45,8.54,5.88,18.57,8.82,30.11,8.82Z"/>
      </g>
      <g>
        <path class="cls-1" d="m795.35,41.65c-11.74-14.44-12.1-11.78-23.45,2.45-10.83,13.59-58.72,47.1-80.7,70.33-21.98,23.23-31.41,48.43-29.31,79.55.46,6.79,4.09,21.06,13.98,32.27.43-3.3,1.04-6.68,2.1-10.22,5.35-17.93,24.57-47.13,38.38-64.39,13.82-17.26,39.92-36.51,43.76-37.17,3.84-.66-6.35,15.46-22.91,35.42-19.08,23-38.73,56.95-43.88,80.07-.61,2.75-1.01,5.44-1.28,8.05,5.33,2.27,11.51,3.69,18.7,3.83,37.45.7,73.03-25.15,95.78-71.63,24.12-49.29,6.85-106.41-11.17-128.57Z"/>
        <path class="cls-3" d="m754.51,19.34c-9.36-22.15-71.44-28.04-109.82-2.92-38.38,25.12-53.14,67.03-52.47,103.89.67,36.87,7.44,53.54,30.6,77.53,23.16,23.99,32.51,21.19,31.33,12.26-1.23-9.32-8.52-38.43,2.92-67.54,18.21-46.33,58.82-67.07,77.95-81.49,18.63-14.05,25.91-26.54,19.49-41.74Z"/>
      </g>
    </g>
    <path class="cls-2" d="m115.45,163.68L170.67,7.99h57.22l-85.16,226.21h-56.89L0,7.99h59.31l56.14,155.69Z"/>
  </g>
</svg>